Patient4_TMGait_0pt7_02_left_40_EMG.mot
version=1
nRows=23
nColumns=33
inDegrees=no
endheader
time	1LAddLong	2LGlutMax	3LGlutMed	4LIliopsoas	5LSemiMemb	6LBicFemLong	7LRecFem	8LVastMed	9LVastLat	10LGasMed	11LTibAnt	12lTibPost	13LPeroneusLong	14LSol	15LExtDigLong	16LFlexDigLong	17RAddLong	18RGlutMax	19RGlutMed	20RIliopsoas	21RSemiMemb	22RBicFemLong	23RRecFem	24RVastMed	25RVastLat	26RGasMed	27RTibAnt	28RTibPost	29RPeroneusLong	30RSol	31RExtDigLong	32RFlexDigLong
46.222	0.037384	1.4099	-0.5513	0.020905	-0.00351	0.017395	0.37781	-0.006561	-0.49393	0.04776	0.10529	0.018921	0.024414	0.047607	0.020447	0.054932	0.085602	0.23056	0.25742	0.11856	0.028992	-0.07309	0.89829	0.027008	0.028076	0.002289	-0.035706	0.013428	0.021515	-0.072784	-0.009613	-0.002441
46.223	0.013733	1.3841	-0.42007	0.002594	-0.025482	0.088959	0.59189	-0.002289	-0.47455	0.1799	0.13504	0.031281	-0.1622	-0.38818	-0.28961	0.053253	0.017242	0.09903	0.28656	0.15137	0.000916	-0.15656	0.92499	0.004425	0.023956	0.006866	0.01358	0.01236	0.12344	-0.063934	-0.00473	-0.003052
46.224	-0.02182	1.2416	-0.078583	0.025177	-0.10696	0.2504	0.72678	-0.008545	-0.4158	0.75546	0.034637	0.043488	0.10178	-0.24002	-0.033264	0.050659	-0.042419	-0.050812	0.29617	0.22583	-0.006256	-0.13596	0.87921	0.031586	0.043182	0.006714	0.21957	0.015717	0.23331	-0.11612	-0.004272	-0.000916
46.225	-0.02533	1.1313	-0.029602	0.04715	-0.14542	0.29862	0.78522	-0.016022	-0.37018	0.74036	0.005341	0.10513	-0.15701	-0.10117	0.040131	0.050659	-0.049591	-0.17746	0.30426	0.15686	0.016022	-0.1033	0.85678	0.070953	0.025635	-0.009155	0.050659	0.015869	0.12924	-0.13763	-0.004883	-0.001678
46.226	-0.037384	1.1375	0.040741	0.017242	-0.14633	0.34973	0.8548	0.001373	-0.34531	-0.24628	-0.024567	0.15366	-0.003357	-0.33722	-0.063477	0.016785	-0.028534	-0.36468	0.18036	0.069733	-0.011902	-0.056763	0.84976	0.10056	0.010376	-0.022583	-0.20752	0.015259	0.11261	-0.13748	-0.005341	-0.003052
46.227	-0.047607	1.123	-0.070038	0.005798	-0.15854	0.40085	0.90027	0.010376	-0.3154	-0.34836	-0.016022	-0.10284	0.53543	-0.36835	-0.050354	0.025177	0.023346	-0.45517	0.22507	0.017548	-0.087128	-0.048828	0.89676	0.033722	0.013885	-0.01358	-0.24063	0.021362	0.11459	-0.043488	-0.004883	-0.003204
46.228	-0.048523	1.113	-0.11154	-0.00946	-0.14801	0.41794	0.90759	0.05188	-0.26596	-0.35904	-0.018768	-0.012512	0.91858	-0.18646	-0.037231	0.014343	0.016327	-0.49652	0.27512	0.03891	-0.11505	-0.018921	0.87174	-0.046387	-0.018768	-0.012054	-0.30746	0.021057	0.005035	-0.012817	-0.003662	-0.005798
46.229	-0.052338	1.0954	-0.075989	-0.013275	-0.15595	0.41153	0.83633	0.076904	-0.25482	-0.28076	-0.0383	0.01358	0.5542	0.15884	0.014954	0.017242	-0.035248	-0.64636	0.14587	0.10895	-0.10407	0.023041	0.86289	-0.08194	-0.005188	-0.011902	-0.14923	0.026093	-0.04425	-0.043945	-0.005341	-0.005035
46.23	-0.044861	1.0921	-0.019989	0	-0.084076	0.12283	0.84457	0.056915	-0.2095	-0.17471	0.024109	0.006561	-0.37796	0.19073	0.077515	0.009918	-0.072174	-0.77194	-0.042877	0.075684	-0.10437	0.2243	0.92407	-0.0737	-0.009308	-0.003357	0.046844	0.022583	-0.03006	-0.06546	-0.005493	-0.000763
46.231	-0.028992	1.0504	0.022278	-0.01709	-0.006561	-0.37521	0.77835	0.02594	-0.12573	-0.097046	0.045013	-0.028534	-0.41855	-0.10223	0.009766	-0.001221	-0.089569	-0.85098	-0.033722	-0.001526	-0.112	0.20905	0.93643	-0.062866	-0.039825	0.001984	0.11948	0.02533	-0.006409	-0.021057	-0.002899	-0.001984
46.232	-0.016174	1.0873	0.006256	-0.000153	-0.11444	-0.34836	0.62836	-0.007019	-0.014038	-0.030975	0.034332	-0.028992	-0.28244	-0.28458	-0.013123	-0.016632	-0.065155	-0.94101	-0.012512	-0.033569	-0.032501	0.11658	0.9346	-0.088043	-0.038452	0.006714	0.42023	0.02182	0.003967	-0.023956	-0.004883	-0.002136
46.233	0.000763	1.1275	-0.092773	0.016632	-0.19134	-0.17349	0.61172	-0.032806	-0.027771	-0.006104	0.00061	-0.02594	0.1651	-0.20065	0.080109	-0.00473	-0.047607	-1.0725	-0.068207	-0.041504	0.058441	-0.009613	0.83359	-0.10635	-0.005188	0.003662	-0.052185	0.022278	-0.008698	0.07309	-0.007935	-0.005798
46.234	0.011444	1.0161	-0.099792	-0.016174	-0.14969	-0.046539	0.59891	-0.024261	-0.061493	0.19501	0.033417	-0.027161	0.1033	-0.061798	0.085144	0.010986	-0.086975	-1.0944	-0.002747	-0.085297	0.1062	0.054474	0.77179	-0.12497	-0.023804	-0.00351	-0.62393	0.019379	0.040283	0.19714	-0.006561	-0.022583
46.235	0.024414	0.85968	-0.000305	-0.007172	-0.10849	-0.084839	0.53146	-0.029144	0.032501	0.35294	0.00824	-0.03006	-0.2562	-0.054474	0.002594	0.05661	0.018768	-1.1493	0.17532	-0.16647	-0.008087	0.10437	0.80917	-0.2034	-0.033722	0.002441	-0.67764	0.018921	0.083008	0.24124	-0.010681	-0.001221
46.236	0.059204	0.73181	0.028992	0.021667	-0.013428	-0.20844	0.44525	-0.00473	0.095825	0.23254	-0.05188	-0.023804	-0.09079	-0.096741	-0.10086	0.009003	0.030365	-1.1911	0.12085	-0.094299	-0.064697	0.0914	0.72632	-0.10834	-0.00885	0.005341	-0.59341	0.017853	0.057526	0.14923	-0.006104	-0.001678
46.237	0.06958	0.70725	0.070038	0.027618	0.041351	-0.17609	0.35584	-0.04715	0.018311	0.081482	-0.010071	-0.027924	-0.36285	-0.13825	-0.11093	0.00351	0.07431	-1.2685	-0.10529	-0.079193	-0.08728	0.026245	0.63232	0.005493	0.000916	0.000305	-0.32028	0.018921	-0.068054	0.10223	-0.006714	0.002747
46.238	0.069885	0.52933	-0.067139	0.003662	-0.029297	-0.24658	0.14938	0.010071	-0.06012	0.063171	0.017242	-0.025635	-0.32761	-0.31235	-0.047913	0.017395	0.065613	-1.3808	-0.14893	-0.079498	-0.11108	0.05127	0.62027	0.10391	0.009918	-0.001984	0.10422	0.022278	-0.14908	0.13473	-0.007324	-0.002289
46.239	0.061646	0.41855	-0.13306	-0.024414	-0.063782	-0.026398	-0.053558	0.0383	-0.051575	-0.28229	0.028534	-0.016632	-0.33981	-0.45319	-0.035553	0.016022	0.040283	-1.4331	-0.11704	-0.041199	-0.085449	0.065308	0.62225	0.10956	0.017853	0.002594	0.076294	0.018921	-0.009918	0.11108	-0.004883	0.001526
46.24	0.068054	0.40314	-0.056	-0.00885	0.023041	-0.14404	-0.2243	0.022125	-0.012207	-0.15274	0.032959	-0.016479	0.36758	-0.084991	-0.052185	0.014648	0.020752	-1.4131	-0.049286	0.020752	-0.049744	0.002289	0.58624	0.095673	0.015259	0.001221	-0.029449	0.015717	0.050964	0.049744	-0.006561	0.003052
46.241	0.072327	0.50858	0.050201	0.005188	0.11505	-0.36453	-0.33737	-0.011139	0.012207	-0.29068	-0.016022	-0.029144	1.485	0.25925	0.11795	0.028381	0.022125	-1.4207	-0.037842	0.040131	-0.045319	0.010986	0.62347	0.057373	0.016174	-0.001526	-0.2359	0.017242	0.090332	0.019073	-0.011444	0
46.242	0.082855	0.59906	0.14236	0.006256	0.16998	-0.42786	-0.49774	-0.04837	0.060883	-0.51956	0.020294	-0.028839	0.11887	0.19592	0.1149	0.009155	0.033264	-1.5128	0.089874	0.077667	-0.016327	0.002594	0.61874	0.051575	0.020905	-0.011139	-0.042725	0.014801	0.092163	0.045319	-0.007019	0.001068
46.243	0.064697	0.72067	0.22079	0.044403	0.13092	-0.027924	-0.62531	-0.075531	0.1149	-0.50171	0.019226	-0.027618	-0.90271	-0.065613	0.009613	-0.014954	0.047607	-1.5758	0.11917	-0.011292	-0.024109	-0.017548	0.62103	0.10269	0.033417	-0.024109	0.046387	0.013885	0.086975	0.14511	-0.010681	-0.001221
46.244	0.033264	0.91003	0.23148	0.032043	0.041656	0.29388	-0.64957	-0.038757	0.054474	-0.079956	0.025177	-0.010529	-0.70633	-0.10696	-0.023346	-0.024261	-0.011749	-1.5886	-0.088806	-0.24674	-0.059814	-0.028992	0.59326	0.041351	0.010223	-0.032806	0.054016	0.010834	0.081635	0.2829	-0.010071	-0.005646
